<?xml version="1.0" encoding="utf-8"?>
<!-- Generator: Adobe Illustrator 26.0.1, SVG Export Plug-In . SVG Version: 6.00 Build 0)  -->
<svg version="1.1" id="Layer_1" xmlns="http://www.w3.org/2000/svg" xmlns:xlink="http://www.w3.org/1999/xlink" x="0px" y="0px"
	 viewBox="0 0 60 60" style="enable-background:new 0 0 60 60;" xml:space="preserve">
<style type="text/css">
	.st0{display:none;}
	.st1{display:inline;}
	.st2{fill:none;stroke:#EDEDED;stroke-linecap:round;stroke-linejoin:round;stroke-miterlimit:10;}
	.st3{display:inline;fill:none;stroke:#EDEDED;stroke-linecap:round;stroke-linejoin:round;stroke-miterlimit:10;}
	.st4{display:inline;fill:#EDEDED;}
	.st5{font-family:'Nunito-Regular';}
	.st6{font-size:12.834px;}
	.st7{fill:#EDEDED;}
</style>
<g id="file_converter" class="st0">
	<g class="st1">
		<line class="st2" x1="46.1" y1="41.5" x2="46.1" y2="13.2"/>
		<path class="st2" d="M35.5,1H9C6.4,1,4.4,3,4.4,5.6v45.1c0,2.5,2,4.6,4.6,4.6h29.3"/>
		<path class="st2" d="M35.7,1l10.4,12.1c0.1,0.1,0,0.2-0.1,0.2l-9.7,0.1c-0.5,0-0.9-0.4-0.9-0.9l0.1-11.3C35.5,1,35.6,1,35.7,1z"/>
	</g>
	<line class="st3" x1="11.2" y1="13.5" x2="22.3" y2="13.5"/>
	<line class="st3" x1="11.2" y1="42.8" x2="22.3" y2="42.8"/>
	<line class="st3" x1="11.2" y1="20.9" x2="38.7" y2="20.9"/>
	<line class="st3" x1="11.2" y1="26.4" x2="38.7" y2="26.4"/>
	<line class="st3" x1="11.2" y1="31.9" x2="38.7" y2="31.9"/>
	<line class="st3" x1="11.2" y1="37.4" x2="38.7" y2="37.4"/>
	<path class="st3" d="M54.2,50.3c0,4.8-3.9,8.7-8.7,8.7s-8.7-3.9-8.7-8.7s3.9-8.7,8.7-8.7c1.5,0,2.8,0.4,4.1,1"/>
	<path class="st4" d="M53.9,47.8c0.1-0.2,0.3-0.2,0.4,0l0.6,1l0.6,1c0.1,0.2,0,0.4-0.2,0.4h-1.2H53c-0.2,0-0.3-0.2-0.2-0.4l0.6-1
		L53.9,47.8z"/>
</g>
<g id="cloud_migrations" class="st0">
	<path class="st3" d="M25.4,34.3c0,8.4-7.3,7.8-7.3,7.8c-2.2,0-4.4,0-6.6,0C6,42.1,1.7,38,1.1,33.2C1.1,33.1,1,33,1,32.9
		c0-0.7,0-1.4,0-2c0.1-0.4,0.2-0.9,0.3-1.3c1.1-4.1,3.8-6.6,7.9-7.6c0.1,0,0.3-0.1,0.4-0.1c0.5-6.7,3.6-11.4,10.1-13.2
		c6.4-1.8,11.5,0.6,15.2,5.9c1.2-0.4,2.3-0.9,3.5-1.1c5.3-1.1,10.7,2.5,11.8,7.8c0.1,0.4,0.2,0.6,0.6,0.7c4.9,1,8.4,5.4,8.2,10.4
		c-0.2,4.8-4.1,9-9,9.6c-0.5,0.1-1,0.1-1.5,0.1c-2.2,0-4.4,0-6.6,0c0,0-7.5-0.3-7.5,7.6"/>
	<path class="st4" d="M25.2,32.2l-1,1.7c-0.1,0.2,0,0.4,0.2,0.4h2c0.2,0,0.3-0.2,0.2-0.4l-1-1.7C25.6,32,25.3,32,25.2,32.2l-1,1.7
		c-0.1,0.2,0,0.4,0.2,0.4h2c0.2,0,0.3-0.2,0.2-0.4l-1-1.7C25.6,32,25.3,32,25.2,32.2z"/>
	<path class="st4" d="M34.2,51.8l-1-1.7c-0.1-0.2,0-0.4,0.2-0.4h2c0.2,0,0.3,0.2,0.2,0.4l-1,1.7C34.6,52,34.3,52,34.2,51.8l-1-1.7
		c-0.1-0.2,0-0.4,0.2-0.4h2c0.2,0,0.3,0.2,0.2,0.4l-1,1.7C34.6,52,34.3,52,34.2,51.8z"/>
</g>
<g id="pdf_management" class="st0">
	<g class="st1">
		<path class="st2" d="M41.1,1L52.3,14c0.1,0.1,0,0.2-0.1,0.2l-10.3,0.1c-0.5,0-1-0.4-1-1L41,1.1C41,1,41.1,1,41.1,1z"/>
	</g>
	<path class="st3" d="M40.9,1H12.6C9.9,1,7.7,3.2,7.7,5.9v48.2c0,2.7,2.2,4.9,4.9,4.9h31H47c3,0,5.3-2.4,5.3-5.3v-9.3V14.1"/>
	<line class="st3" x1="14.9" y1="31.7" x2="26.8" y2="31.7"/>
	<line class="st3" x1="14.9" y1="37.6" x2="44.4" y2="37.6"/>
	<line class="st3" x1="14.9" y1="43.5" x2="44.4" y2="43.5"/>
	<line class="st3" x1="14.9" y1="49.4" x2="44.4" y2="49.4"/>
	<text transform="matrix(1 0 0 1 16.8784 26.1245)" class="st4 st5 st6">PDF</text>
</g>
<g id="email_backup">
	<g>
		<path class="st2" d="M47.4,42.7H12.6c-1.1,0-2-0.9-2-2V19.3c0-1.1,0.9-2,2-2h34.8c1.1,0,2,0.9,2,2v21.3
			C49.4,41.8,48.5,42.7,47.4,42.7z"/>
		<polyline class="st2" points="47.8,18.5 32.6,30 30,32 27.4,30 12.2,18.5 		"/>
		<line class="st2" x1="27.4" y1="30" x2="12.2" y2="41.5"/>
		<line class="st2" x1="47.8" y1="41.5" x2="32.6" y2="30"/>
	</g>
	<g>
		<path class="st2" d="M58.6,34.7c-2.6,15.8-17.5,26.5-33.3,24c-7.9-1.3-14.6-5.7-18.9-11.7"/>
		<path class="st2" d="M1.4,25.3C3.9,9.5,18.8-1.2,34.7,1.4c7.6,1.2,14,5.3,18.4,11"/>
		<path class="st7" d="M53.9,16.1l-3.1-2.4c-0.3-0.2-0.2-0.7,0.1-0.8l3.6-1.5c0.4-0.1,0.7,0.2,0.7,0.5l-0.6,3.9
			C54.7,16.2,54.2,16.3,53.9,16.1l-3.1-2.4c-0.3-0.2-0.2-0.7,0.1-0.8l3.6-1.5c0.4-0.1,0.7,0.2,0.7,0.5l-0.6,3.9
			C54.7,16.2,54.2,16.3,53.9,16.1z"/>
		<path class="st7" d="M4.1,43.5l0,3.9c0,0.4,0.4,0.6,0.7,0.4L8.2,46c0.3-0.2,0.3-0.7,0-0.9l-3.4-2C4.5,42.9,4.1,43.1,4.1,43.5
			l0,3.9c0,0.4,0.4,0.6,0.7,0.4L8.2,46c0.3-0.2,0.3-0.7,0-0.9l-3.4-2C4.5,42.9,4.1,43.1,4.1,43.5z"/>
	</g>
</g>
</svg>
