<?xml version="1.0" encoding="utf-8"?>
<!-- Generator: Adobe Illustrator 26.0.1, SVG Export Plug-In . SVG Version: 6.00 Build 0)  -->
<svg version="1.1" id="Layer_1" xmlns="http://www.w3.org/2000/svg" xmlns:xlink="http://www.w3.org/1999/xlink" x="0px" y="0px"
	 viewBox="0 0 65 65" style="enable-background:new 0 0 65 65;" xml:space="preserve">
<style type="text/css">
	.st0{display:none;}
	.st1{display:inline;}
	.st2{fill:none;stroke:#EDEDED;stroke-linecap:round;stroke-linejoin:round;stroke-miterlimit:10;}
	.st3{display:inline;fill:none;stroke:#EDEDED;stroke-linecap:round;stroke-linejoin:round;stroke-miterlimit:10;}
	.st4{display:inline;fill:#EDEDED;}
	.st5{fill:#EDEDED;}
	.st6{display:inline;fill:#FFFFFF;}
	.st7{fill:#3F3F3F;}
	.st8{fill:#FFFFFF;}
	.st9{fill:none;stroke:#3F3F3F;stroke-linecap:round;stroke-linejoin:round;stroke-miterlimit:10;}
</style>
<g id="fast_migration" class="st0">
	<circle class="st6" cx="32.5" cy="32.5" r="32.5"/>
	<g class="st1">
		<path class="st7" d="M37.6,35.3c-0.5-0.4-0.9-0.8-1.3-1.2c-0.3-0.3-0.4-0.7-0.2-1c0.3-0.4,0.8-0.5,1.2-0.1
			c0.8,0.7,1.7,1.4,2.5,2.1c0.1,0.1,0.2,0.1,0.3,0.2c0.5,0.4,0.5,0.9,0,1.3c-0.9,0.8-1.8,1.5-2.8,2.3c-0.4,0.4-0.9,0.3-1.2,0
			c-0.3-0.4-0.2-0.8,0.2-1.1c0.4-0.3,0.8-0.7,1.3-1.1c-0.3,0-0.5,0-0.6,0c-4.9,0-9.7,0-14.6,0c-1.1,0-2-0.6-2.3-1.7
			C20,34.9,20,34.6,20,34.4c0-3.8,0-7.6,0-11.4c0-1.5,0.9-2.4,2.4-2.4c3.8,0,7.5,0,11.3,0c1.5,0,2.4,0.9,2.4,2.4c0,0.7,0,1.3,0,2
			c0,0.5-0.3,0.8-0.7,0.8c-0.5,0-0.7-0.3-0.7-0.9c0-0.7,0-1.3,0-2c0-0.7-0.3-0.9-0.9-0.9c-1.2,0-2.4,0-3.6,0c-2.5,0-5.1,0-7.6,0
			c-0.8,0-1,0.2-1,1c0,3.7,0,7.4,0,11.2c0,0.8,0.3,1,1,1c4.8,0,9.7,0,14.5,0C37.1,35.3,37.3,35.3,37.6,35.3z"/>
		<path class="st7" d="M27.5,29.7c0.5,0.4,0.9,0.7,1.2,1.1c0.4,0.4,0.5,0.8,0.2,1.2c-0.3,0.4-0.8,0.4-1.2,0
			c-0.9-0.8-1.9-1.6-2.8-2.4c-0.4-0.3-0.4-0.9,0-1.2c1-0.9,2-1.7,3-2.5c0.3-0.3,0.8-0.2,1,0.1c0.2,0.3,0.2,0.8-0.1,1
			c-0.4,0.4-0.9,0.7-1.3,1.2c0.1,0,0.3,0,0.4,0c4.9,0,9.8,0,14.6,0c1.5,0,2.4,0.9,2.4,2.4c0,3.8,0,7.6,0,11.4c0,1.4-1,2.4-2.4,2.4
			c-3.8,0-7.6,0-11.4,0c-1.5,0-2.4-0.9-2.4-2.4c0-0.7,0-1.3,0-2c0-0.5,0.3-0.8,0.7-0.8c0.5,0,0.8,0.3,0.8,0.8c0,0.7,0,1.4,0,2.1
			c0,0.6,0.3,0.9,0.9,0.9c3.8,0,7.6,0,11.5,0c0.6,0,0.8-0.3,0.8-0.9c0-3.8,0-7.6,0-11.4c0-0.6-0.3-0.9-0.8-0.9c-5,0-10,0-15,0
			C27.7,29.7,27.6,29.7,27.5,29.7z"/>
	</g>
</g>
<g id="secure">
	<circle class="st8" cx="32.5" cy="32.5" r="32.5"/>
	<g>
		<path class="st7" d="M32.7,17.6c0.3,0.2,0.6,0.4,0.8,0.6c2.2,2,4.7,3.1,7.6,3.5c0.9,0.1,1.7,0.1,2.6,0.2c0.9,0,1.2,0.4,1.2,1.3
			c0,1.9,0.1,3.9,0,5.8c0,2.3-0.2,4.7-0.9,6.9c-1.2,4.6-4,8-8.3,10.1c-0.9,0.5-1.9,0.9-2.9,1.2c-0.2,0.1-0.6,0.1-0.8,0
			c-2.2-0.8-4.3-1.8-6.1-3.3c-2.5-2-4.1-4.6-5.1-7.7c-0.6-2-0.9-4-0.9-6c-0.1-2.5,0-4.9,0-7.4c0-0.6,0.4-1,1.1-1.1
			c0.7,0,1.5-0.1,2.2-0.1c3.1-0.3,5.7-1.5,8-3.6c0.3-0.2,0.6-0.4,0.9-0.6C32.4,17.6,32.6,17.6,32.7,17.6z M22.1,24
			c0,0.1,0,0.2,0,0.3c0,1.3,0,2.5,0,3.8c0,2.2,0.1,4.4,0.6,6.5c0.6,2.6,1.7,4.9,3.6,6.8c1.8,1.8,3.9,2.9,6.2,3.8c0.1,0,0.2,0,0.3,0
			c1.1-0.5,2.2-1,3.2-1.6c2.3-1.3,4-3.1,5.2-5.5c1.1-2.3,1.6-4.8,1.7-7.3c0.1-2.2,0-4.4,0-6.6c0-0.1,0-0.2,0-0.3
			c-0.8-0.1-1.5-0.2-2.2-0.3c-3-0.4-5.6-1.6-7.9-3.5c-0.2-0.2-0.3-0.2-0.6,0c-2.1,1.8-4.5,2.9-7.2,3.4C24,23.8,23.1,23.9,22.1,24z"
			/>
		<path class="st7" d="M31,33.9c1.7-1.7,3.3-3.3,4.9-4.9c0.2-0.2,0.5-0.4,0.8-0.4c0.4,0,0.8,0.2,1,0.5c0.2,0.4,0.2,0.8-0.1,1.1
			c-0.1,0.1-0.2,0.2-0.3,0.3c-1.8,1.8-3.6,3.6-5.4,5.4c-0.6,0.6-1.2,0.6-1.8,0c-0.9-0.9-1.8-1.8-2.7-2.7c-0.3-0.3-0.4-0.7-0.3-1.1
			c0.1-0.4,0.4-0.6,0.8-0.7c0.4-0.1,0.7,0.1,1,0.3c0.6,0.6,1.2,1.2,1.9,1.9C30.9,33.8,31,33.8,31,33.9z"/>
	</g>
</g>
<g id="clock_technical_support" class="st0">
	<circle class="st6" cx="32.5" cy="32.5" r="32.5"/>
	<g class="st1">
		<path class="st9" d="M41.4,37.2c0.4-1,0.6-2.2,0.6-3.3c0-5.5-4.4-9.9-9.9-9.9c-0.6,0-1.1,0-1.7,0.1v0c-0.5,0.1-1,0.2-1.5,0.4
			c-0.3,0.1-0.6,0.2-0.9,0.4c-1.5,0.7-2.8,1.7-3.8,3c-0.2,0.3-0.4,0.5-0.6,0.8c-0.3,0.4-0.5,0.9-0.7,1.3c-0.5,1.2-0.8,2.5-0.8,3.9
			c0,5.5,4.4,9.9,9.9,9.9c1.9,0,3.8-0.6,5.3-1.5"/>
		<path class="st9" d="M39.6,37.3c0.5-1,0.8-2.2,0.8-3.4c0-2.3-0.9-4.3-2.4-5.8c-1.5-1.5-3.5-2.4-5.8-2.4c-2.3,0-4.3,0.9-5.8,2.4
			c0,0-0.1,0.1-0.1,0.1h0c-1.4,1.5-2.3,3.5-2.3,5.6c0,2.3,0.9,4.3,2.4,5.8c1.5,1.5,3.5,2.4,5.8,2.4c1.5,0,3-0.4,4.2-1.2"/>
		<line class="st9" x1="32.2" y1="25.7" x2="32.2" y2="27.5"/>
		<line class="st9" x1="26.4" y1="28.1" x2="27.6" y2="29.3"/>
		<line class="st9" x1="24" y1="33.9" x2="25.8" y2="33.9"/>
		<line class="st9" x1="26.4" y1="39.6" x2="27.6" y2="38.4"/>
		<line class="st9" x1="32.2" y1="42" x2="32.2" y2="40.2"/>
		<line class="st9" x1="40.3" y1="33.9" x2="38.5" y2="33.9"/>
		<line class="st9" x1="37.9" y1="28.1" x2="36.7" y2="29.3"/>
		<g>
			<path class="st9" d="M23.8,28.6c-0.9-0.6-1.5-1.6-1.5-2.8c0-1.9,1.5-3.5,3.4-3.5c1.5,0,2.8,0.9,3.3,2.2"/>
			<path class="st9" d="M23.8,28.6c-0.9-0.6-1.5-1.6-1.5-2.8c0-1.9,1.5-3.5,3.4-3.5c1.5,0,2.8,0.9,3.3,2.2"/>
			<path class="st9" d="M27.8,24.9c0-0.1-0.1-0.2-0.2-0.3c-0.4-0.7-1.1-1.1-1.9-1.1c-1.2,0-2.2,1-2.2,2.2c0,0.6,0.3,1.1,0.7,1.5
				c0.1,0.1,0.2,0.2,0.3,0.2"/>
			<line class="st9" x1="26.2" y1="28.2" x2="26.2" y2="28.2"/>
			<path class="st9" d="M30.1,22.3l-0.4,0.4c0.3,0.4,0.6,0.9,0.8,1.4v0 M23.8,28.6c-0.9-0.6-1.5-1.6-1.5-2.8c0-1.9,1.5-3.5,3.4-3.5
				c1.5,0,2.8,0.9,3.3,2.2 M29.2,21.1C29.2,21.1,29.2,21.1,29.2,21.1l-0.5,0.6c-0.6-0.5-1.3-0.8-2.1-0.9c-0.1,0-0.1,0-0.2,0l0-0.6
				l0-0.1c0-0.1,0-0.1-0.1-0.1L25,20c-0.1,0-0.1,0.1-0.1,0.1l0,0l0.1,0.7c-0.1,0-0.1,0-0.2,0c-0.7,0.1-1.4,0.4-2,0.9
				c0,0-0.1,0.1-0.1,0.1l-0.5-0.5l0,0c0,0-0.1,0-0.1,0l-0.9,1c0,0,0,0.1,0,0.1l0.4,0.3h0l0,0l0,0l0,0l0,0l0,0l0.1,0.1c0,0,0,0,0,0
				c-0.4,0.6-0.7,1.2-0.8,2c0,0.1,0,0.2,0,0.3l-0.7,0l-0.1,0c-0.1,0-0.1,0-0.1,0.1l0,1.3c0,0.1,0.1,0.1,0.1,0.1l0.4,0h0h0h0h0h0h0h0
				h0h0l0.3,0c0,0,0,0,0,0.1c0.1,0.7,0.4,1.4,0.8,2c0,0.1,0.1,0.1,0.1,0.2l-0.5,0.4l-0.1,0.1c0,0,0,0.1,0,0.1l1,0.9c0,0,0.1,0,0.1,0
				l0.4-0.6c0.1,0.1,0.2,0.1,0.2,0.2"/>
		</g>
		<g>
			<path class="st9" d="M44.9,40l-0.7,0.1c-0.1-0.6-0.4-1.2-0.7-1.6L44,38c0,0,0-0.1,0-0.1l-0.7-0.7c0,0-0.1,0-0.1,0l-0.4,0.5
				c-0.5-0.4-1.1-0.6-1.7-0.7l0-0.7c0,0,0-0.1-0.1-0.1l-1,0c0,0-0.1,0-0.1,0.1l0.1,0.7c-0.6,0.1-1.2,0.4-1.6,0.7L38,37.4
				c0,0-0.1,0-0.1,0l-0.7,0.7c0,0,0,0.1,0,0.1l0.5,0.4c-0.4,0.5-0.6,1.1-0.7,1.7l-0.7,0c0,0-0.1,0-0.1,0.1l0,1c0,0,0,0.1,0.1,0.1
				l0.7-0.1c0.1,0.6,0.4,1.2,0.7,1.6l-0.5,0.5c0,0,0,0.1,0,0.1l0.7,0.7c0,0,0.1,0,0.1,0l0.4-0.5c0.5,0.4,1.1,0.6,1.7,0.7l0,0.7
				c0,0,0,0.1,0.1,0.1l1,0c0,0,0.1,0,0.1-0.1l-0.1-0.7c0.6-0.1,1.2-0.4,1.6-0.7l0.5,0.5c0,0,0.1,0,0.1,0l0.7-0.7c0,0,0-0.1,0-0.1
				l-0.5-0.4c0.4-0.5,0.6-1.1,0.7-1.7l0.7,0c0,0,0.1,0,0.1-0.1L44.9,40C45,40.1,44.9,40,44.9,40z M40.7,42.5c-1,0-1.8-0.8-1.8-1.7
				c0-1,0.8-1.8,1.7-1.8c1,0,1.8,0.8,1.8,1.7C42.5,41.6,41.7,42.5,40.7,42.5z"/>
			<circle class="st9" cx="40.7" cy="40.7" r="1.8"/>
			<circle class="st9" cx="40.7" cy="40.7" r="1.8"/>
		</g>
		<rect x="29.2" y="20.5" class="st9" width="5.9" height="1.8"/>
		<polyline class="st9" points="30.5,22.3 33.8,22.3 33.8,24 32.2,24 		"/>
		<path class="st9" d="M32.5,32.2l2.8-2.8c0.4-0.4,0.9-0.4,1.3,0c0,0,0,0,0,0c0.2,0.2,0.3,0.4,0.3,0.6c0,0.2-0.1,0.5-0.3,0.6
			l-2.9,2.9"/>
		<polyline class="st9" points="30.4,34.3 28.8,35.9 30.1,37.2 31.7,35.5 		"/>
		
			<rect x="38.9" y="25.2" transform="matrix(0.7071 0.7071 -0.7071 0.7071 30.1676 -20.4903)" class="st9" width="1.8" height="1.9"/>
		<circle class="st9" cx="32.1" cy="33.9" r="1.7"/>
	</g>
</g>
</svg>
